<?xml version="1.0" encoding="UTF-8" standalone="no"?>
<svg
   xmlns:dc="http://purl.org/dc/elements/1.1/"
   xmlns:cc="http://creativecommons.org/ns#"
   xmlns:rdf="http://www.w3.org/1999/02/22-rdf-syntax-ns#"
   xmlns:svg="http://www.w3.org/2000/svg"
   xmlns="http://www.w3.org/2000/svg"
   viewBox="0 0 357.75067 84.015999"
   height="84.015999"
   width="357.75067"
   xml:space="preserve"
   id="svg2"
   version="1.1"><metadata
     id="metadata8"><rdf:RDF><cc:Work
         rdf:about=""><dc:format>image/svg+xml</dc:format><dc:type
           rdf:resource="http://purl.org/dc/dcmitype/StillImage" /><dc:title></dc:title></cc:Work></rdf:RDF></metadata><defs
     id="defs6"><clipPath
       id="clipPath18"
       clipPathUnits="userSpaceOnUse"><path
         id="path16"
         d="M 0,63.012 H 268.313 V 0 H 0 Z" /></clipPath></defs><g
     transform="matrix(1.3333333,0,0,-1.3333333,0,84.016)"
     id="g10"><g
       id="g12"><g
         clip-path="url(#clipPath18)"
         id="g14"><g
           transform="translate(32.313,10.616)"
           id="g20"><path
             id="path22"
             style="fill:#0050a0;fill-opacity:1;fill-rule:nonzero;stroke:none"
             d="m 0,0 20.602,11.981 c 1.008,0.586 2.326,0.89 3.656,0.916 v 19.846 c 0.007,2.423 -1.674,5.391 -3.776,6.596 L -0.196,51.191 c -2.102,1.205 -5.537,1.194 -7.631,-0.024 L -28.43,39.185 c -2.094,-1.218 -3.883,-4.197 -3.875,-6.62 l 0.023,-23.833 c 0.006,-2.423 1.866,-5.391 3.968,-6.596 L -7.636,-9.716 c 1.037,-0.595 2.399,-0.892 3.764,-0.896 l -0.004,3.991 C -3.883,-4.198 -2.095,-1.218 0,0" /></g><g
           transform="translate(32.3086,0.9221)"
           id="g24"><path
             id="path26"
             style="fill:#fdd700;fill-opacity:1;fill-rule:nonzero;stroke:none"
             d="m 0,0 20.411,11.862 c 2.095,1.218 3.846,4.196 3.852,6.619 v 4.11 C 22.933,22.564 21.615,22.26 20.607,21.675 L 0.004,9.694 C -2.09,8.475 -3.879,5.496 -3.871,3.073 l 0.004,-3.991 C -2.466,-0.922 -1.061,-0.617 0,0" /></g><g
           transform="translate(33.5596,35.5325)"
           id="g28"><path
             id="path30"
             style="fill:#ffffff;fill-opacity:1;fill-rule:nonzero;stroke:none"
             d="m 0,0 h -4.773 l -0.42,-2.212 h 4.542 l -0.7,-3.54 H -5.869 L -6.357,-8.29 h 4.773 l -0.697,-3.747 h -9.013 c 0,0 2.096,11.076 2.431,12.846 0.335,1.772 1.565,2.87 3.369,2.87 h 6.193 z" /></g><g
           transform="translate(45.1494,23.4954)"
           id="g32"><path
             id="path34"
             style="fill:#ffffff;fill-opacity:1;fill-rule:nonzero;stroke:none"
             d="m 0,0 h -4.982 l -1.56,5.285 C -6.915,6.519 -7.241,7.776 -7.451,8.824 -7.544,7.892 -7.637,7.358 -7.824,6.332 L -9.034,0 h -4.098 l 2.98,15.716 h 2.085 c 1.735,0 3.075,-0.399 3.642,-2.188 0.249,-0.79 0.723,-2.399 0.723,-2.399 0.443,-1.396 0.839,-2.816 1.095,-4.075 0.094,1.071 0.28,2.283 0.465,3.261 l 1.025,5.401 h 4.122 z" /></g><g
           transform="translate(19.1465,39.3289)"
           id="g36"><path
             id="path38"
             style="fill:#ffffff;fill-opacity:1;fill-rule:nonzero;stroke:none"
             d="m 0,0 c -0.209,0 -0.412,0 -0.614,-0.002 l -0.642,-3.537 c 0,0 0.349,0.023 0.627,0.023 1.048,0 1.467,-0.605 1.467,-1.327 0,-1.305 -1.001,-2.562 -2.538,-2.562 -0.047,0 -0.14,0 -0.28,0.023 l 0.724,3.841 h -4.257 l -2.335,-12.293 h 4.239 l 0.908,4.842 c 0.303,-0.024 0.558,-0.024 0.698,-0.024 4.309,0 7.289,3.122 7.289,6.685 C 5.286,-1.351 3.05,0 0,0" /></g><g
           transform="translate(17.8872,35.781)"
           id="g40"><path
             id="path42"
             style="fill:#0e4c9d;fill-opacity:1;fill-rule:nonzero;stroke:none"
             d="m 0,0 h 0.003 c 0,0 0,0.009 -0.001,0.008 z" /></g><g
           transform="translate(73.6382,43.4221)"
           id="g44"><path
             id="path46"
             style="fill:#0050a0;fill-opacity:1;fill-rule:nonzero;stroke:none"
             d="m 0,0 c 0,1.931 -1.496,2.94 -3.688,2.94 h -3.445 v -5.967 h 3.34 C -1.531,-3.027 0,-1.844 0,-0.035 Z M -3.845,-3.862 H -7.133 V -8.403 H -8.037 V 3.775 h 4.418 c 2.68,0 4.524,-1.374 4.524,-3.723 V 0.017 c 0,-2.557 -2.21,-3.879 -4.75,-3.879" /></g><g
           transform="translate(85.4331,43.701)"
           id="g48"><path
             id="path50"
             style="fill:#0050a0;fill-opacity:1;fill-rule:nonzero;stroke:none"
             d="m 0,0 c 0,1.635 -1.287,2.662 -3.497,2.662 h -4.158 v -5.481 h 4.106 c 2.035,0 3.549,1.027 3.549,2.784 z m 0.209,-8.681 -3.88,5.044 H -7.655 V -8.681 H -8.559 V 3.497 h 5.114 c 2.627,0 4.35,-1.427 4.35,-3.462 L 0.905,0 c 0,-2.036 -1.514,-3.201 -3.567,-3.48 l 4.019,-5.201 z" /></g><g
           transform="translate(99.8716,41.1087)"
           id="g52"><path
             id="path54"
             style="fill:#0050a0;fill-opacity:1;fill-rule:nonzero;stroke:none"
             d="m 0,0 c 0,3.009 -2.192,5.48 -5.202,5.48 -3.009,0 -5.167,-2.436 -5.167,-5.446 V 0 c 0,-3.01 2.192,-5.481 5.202,-5.481 3.01,0 5.167,2.436 5.167,5.446 z m -5.202,-6.298 c -3.688,0 -6.106,2.94 -6.106,6.263 V 0 c 0,3.322 2.453,6.297 6.141,6.297 3.688,0 6.106,-2.94 6.106,-6.263 0.018,-0.017 0.018,-0.017 0,-0.034 0,-3.323 -2.453,-6.298 -6.141,-6.298" /></g><g
           transform="translate(109.126,34.8103)"
           id="g56"><path
             id="path58"
             style="fill:#0050a0;fill-opacity:1;fill-rule:nonzero;stroke:none"
             d="m 0,0 c -3.845,0 -6.124,2.836 -6.124,6.264 v 0.034 c 0,3.288 2.383,6.298 6.02,6.298 1.983,0 3.236,-0.592 4.454,-1.601 L 3.758,10.316 c -0.957,0.836 -2.07,1.462 -3.915,1.462 -2.957,0 -5.027,-2.505 -5.027,-5.446 V 6.298 c 0,-3.149 1.965,-5.498 5.219,-5.498 1.548,0 2.992,0.644 3.88,1.392 V 5.689 H -0.157 V 6.524 H 4.784 V 1.827 C 3.688,0.853 1.983,0 0,0" /></g><g
           transform="translate(125.3916,43.701)"
           id="g60"><path
             id="path62"
             style="fill:#0050a0;fill-opacity:1;fill-rule:nonzero;stroke:none"
             d="m 0,0 c 0,1.635 -1.287,2.662 -3.497,2.662 h -4.158 v -5.481 h 4.106 c 2.035,0 3.549,1.027 3.549,2.784 z m 0.209,-8.681 -3.88,5.044 H -7.655 V -8.681 H -8.559 V 3.497 h 5.114 c 2.627,0 4.35,-1.427 4.35,-3.462 L 0.905,0 c 0,-2.036 -1.514,-3.201 -3.567,-3.48 l 4.019,-5.201 z" /></g><g
           transform="translate(134.1064,46.2932)"
           id="g64"><path
             id="path66"
             style="fill:#0050a0;fill-opacity:1;fill-rule:nonzero;stroke:none"
             d="m 0,0 -3.219,-7.046 h 6.42 z m 5.132,-11.273 -1.548,3.41 h -7.185 l -1.548,-3.41 h -0.94 l 5.671,12.265 h 0.87 l 5.672,-12.265 z" /></g><g
           transform="translate(153.0337,35.0193)"
           id="g68"><path
             id="path70"
             style="fill:#0050a0;fill-opacity:1;fill-rule:nonzero;stroke:none"
             d="M 0,0 V 10.577 L -4.818,3.566 h -0.07 l -4.819,7.011 V 0 h -0.871 v 12.178 h 0.853 l 4.888,-7.203 4.889,7.203 H 0.906 V 0 Z" /></g><g
           transform="translate(162.2539,46.2932)"
           id="g72"><path
             id="path74"
             style="fill:#0050a0;fill-opacity:1;fill-rule:nonzero;stroke:none"
             d="m 0,0 -3.219,-7.046 h 6.42 z m 5.132,-11.273 -1.549,3.41 h -7.185 l -1.548,-3.41 h -0.94 l 5.672,12.265 h 0.869 l 5.672,-12.265 z" /></g><g
           transform="translate(65.5142,31.5252)"
           id="g76"><path
             id="path78"
             style="fill:#0050a0;fill-opacity:1;fill-rule:nonzero;stroke:none"
             d="M 0,0 H 9.795 V -2.871 H 3.34 V -4.715 H 9.186 V -7.377 H 3.34 v -1.931 h 6.542 v -2.871 H 0 Z" /></g><g
           transform="translate(75.8472,21.156)"
           id="g80"><path
             id="path82"
             style="fill:#0050a0;fill-opacity:1;fill-rule:nonzero;stroke:none"
             d="M 0,0 1.879,2.245 C 3.08,1.288 4.419,0.783 5.829,0.783 6.733,0.783 7.22,1.096 7.22,1.618 V 1.653 C 7.22,2.157 6.82,2.436 5.167,2.819 2.575,3.41 0.574,4.141 0.574,6.646 v 0.035 c 0,2.261 1.792,3.897 4.715,3.897 2.07,0 3.688,-0.557 5.01,-1.618 L 8.612,6.577 c -1.113,0.782 -2.331,1.2 -3.41,1.2 -0.818,0 -1.218,-0.348 -1.218,-0.783 V 6.959 c 0,-0.556 0.418,-0.8 2.105,-1.183 2.802,-0.609 4.542,-1.513 4.542,-3.792 V 1.949 C 10.631,-0.54 8.665,-2.018 5.707,-2.018 3.549,-2.018 1.496,-1.339 0,0" /></g><g
           transform="translate(90.3906,28.5677)"
           id="g84"><path
             id="path86"
             style="fill:#0050a0;fill-opacity:1;fill-rule:nonzero;stroke:none"
             d="M 0,0 H -3.654 V 2.958 H 7.028 V 0 H 3.375 V -9.221 H 0 Z" /></g><g
           transform="translate(104.1494,24.1487)"
           id="g88"><path
             id="path90"
             style="fill:#0050a0;fill-opacity:1;fill-rule:nonzero;stroke:none"
             d="M 0,0 -1.357,3.462 -2.731,0 Z M -2.958,7.463 H 0.296 L 5.48,-4.802 H 1.862 l -0.888,2.175 h -4.697 l -0.87,-2.175 h -3.549 z" /></g><g
           transform="translate(115.2129,22.3391)"
           id="g92"><path
             id="path94"
             style="fill:#0050a0;fill-opacity:1;fill-rule:nonzero;stroke:none"
             d="m 0,0 c 2.018,0 3.358,1.113 3.358,3.079 v 0.035 c 0,1.948 -1.34,3.08 -3.358,3.08 H -1.374 V 0 Z m -4.75,9.186 h 4.698 C 4.297,9.186 6.82,6.68 6.82,3.166 V 3.132 c 0,-3.515 -2.557,-6.125 -6.942,-6.125 H -4.75 Z" /></g><g
           transform="translate(132.6792,25.4016)"
           id="g96"><path
             id="path98"
             style="fill:#0050a0;fill-opacity:1;fill-rule:nonzero;stroke:none"
             d="m 0,0 v 0.034 c 0,1.757 -1.27,3.288 -3.132,3.288 -1.844,0 -3.079,-1.495 -3.079,-3.253 V 0.034 c 0,-1.757 1.27,-3.288 3.115,-3.288 C -1.235,-3.254 0,-1.758 0,0 m -9.673,0 v 0.034 c 0,3.498 2.818,6.333 6.577,6.333 3.757,0 6.541,-2.801 6.541,-6.298 V 0.034 c 0,-3.497 -2.819,-6.333 -6.577,-6.333 -3.757,0 -6.541,2.801 -6.541,6.299" /></g><g
           transform="translate(146.7524,22.3391)"
           id="g100"><path
             id="path102"
             style="fill:#0050a0;fill-opacity:1;fill-rule:nonzero;stroke:none"
             d="M 0,0 C 2.017,0 3.358,1.113 3.358,3.079 V 3.114 C 3.358,5.062 2.017,6.194 0,6.194 H -1.375 V 0 Z m -4.75,9.186 h 4.698 c 4.349,0 6.871,-2.506 6.871,-6.02 V 3.132 c 0,-3.515 -2.557,-6.125 -6.941,-6.125 H -4.75 Z" /></g><g
           transform="translate(154.9629,31.5252)"
           id="g104"><path
             id="path106"
             style="fill:#0050a0;fill-opacity:1;fill-rule:nonzero;stroke:none"
             d="M 0,0 H 9.795 V -2.871 H 3.34 V -4.715 H 9.186 V -7.377 H 3.34 v -1.931 h 6.542 v -2.871 H 0 Z" /></g><g
           transform="translate(170.689,31.5252)"
           id="g108"><path
             id="path110"
             style="fill:#0050a0;fill-opacity:1;fill-rule:nonzero;stroke:none"
             d="m 0,0 h 3.375 v -9.221 h 5.898 v -2.958 H 0 Z" /></g><g
           transform="translate(188.2251,24.1487)"
           id="g112"><path
             id="path114"
             style="fill:#0050a0;fill-opacity:1;fill-rule:nonzero;stroke:none"
             d="M 0,0 -1.357,3.462 -2.731,0 Z M -2.958,7.463 H 0.295 L 5.48,-4.802 H 1.861 l -0.887,2.175 h -4.698 l -0.869,-2.175 h -3.55 z" /></g><g
           transform="translate(199.0093,31.5252)"
           id="g116"><path
             id="path118"
             style="fill:#0050a0;fill-opacity:1;fill-rule:nonzero;stroke:none"
             d="M 0,0 H 3.149 L 8.16,-6.438 V 0 H 11.5 V -12.179 H 8.542 l -5.201,6.681 v -6.681 H 0 Z" /></g><g
           transform="translate(219.4854,24.1487)"
           id="g120"><path
             id="path122"
             style="fill:#0050a0;fill-opacity:1;fill-rule:nonzero;stroke:none"
             d="M 0,0 -1.357,3.462 -2.731,0 Z M -2.958,7.463 H 0.297 L 5.48,-4.802 H 1.862 l -0.888,2.175 h -4.697 l -0.869,-2.175 h -3.55 z" /></g><g
           transform="translate(224.5962,25.4016)"
           id="g124"><path
             id="path126"
             style="fill:#0050a0;fill-opacity:1;fill-rule:nonzero;stroke:none"
             d="m 0,0 v 0.034 c 0,3.549 2.732,6.333 6.419,6.333 2.488,0 4.089,-1.044 5.168,-2.54 L 9.046,1.861 C 8.351,2.731 7.55,3.288 6.384,3.288 4.68,3.288 3.479,1.843 3.479,0.069 V 0.034 c 0,-1.826 1.201,-3.253 2.905,-3.253 1.271,0 2.019,0.591 2.75,1.479 l 2.539,-1.81 C 10.526,-5.133 8.977,-6.299 6.28,-6.299 2.8,-6.299 0,-3.637 0,0" /></g><path
           id="path128"
           style="fill:#0050a0;fill-opacity:1;fill-rule:nonzero;stroke:none"
           d="m 237.435,31.525 h 3.393 V 19.346 h -3.393 z" /><g
           transform="translate(249.4731,35.5608)"
           id="g130"><path
             id="path132"
             style="fill:#0050a0;fill-opacity:1;fill-rule:nonzero;stroke:none"
             d="M 0,0 3.079,-0.991 0.521,-3.218 H -1.81 Z m 2.488,-10.159 v 0.034 c 0,1.757 -1.27,3.288 -3.131,3.288 -1.845,0 -3.08,-1.496 -3.08,-3.253 v -0.035 c 0,-1.757 1.269,-3.288 3.114,-3.288 1.862,0 3.097,1.496 3.097,3.254 m -9.674,0 v 0.034 c 0,3.497 2.82,6.332 6.577,6.332 3.758,0 6.541,-2.8 6.541,-6.297 v -0.035 c 0,-3.497 -2.818,-6.333 -6.575,-6.333 -3.758,0 -6.543,2.801 -6.543,6.299" /></g><g
           transform="translate(256.8135,31.5252)"
           id="g134"><path
             id="path136"
             style="fill:#0050a0;fill-opacity:1;fill-rule:nonzero;stroke:none"
             d="M 0,0 H 3.149 L 8.16,-6.438 V 0 H 11.5 V -12.179 H 8.542 L 3.34,-5.498 v -6.681 H 0 Z" /></g></g></g></g></svg>
